<svg xmlns="http://www.w3.org/2000/svg" viewBox="0 0 643 173">
    <g fill="#2E6DE7" fill-rule="evenodd">
        <path d="M214.2 124.016c-.337-.896-1.512-4.59-1.903-5.987-.56 2.294-1.287 4.7-1.736 5.987l-4.532 12.086h12.647l-4.477-12.086zm5.986 16.562h-15.835l-4.756 12.366h-5.092l15.611-40.12h4.532l15.556 40.12h-5.204l-4.812-12.366zM254.483 138.955v-.896c0-7.44-2.014-11.582-8.673-11.582-5.315 0-7.945 4.533-7.945 11.638 0 7.162 2.63 11.303 8.002 11.303 6.322 0 8.616-3.469 8.616-10.463m-21.71-.95c0-10.297 4.924-15.612 12.366-15.612 4.644 0 7.442 1.958 9.288 4.42h.336c-.112-.952-.336-3.3-.336-4.42V112.32l4.924-1.902v42.525h-3.972l-.728-4.028h-.224c-1.791 2.573-4.644 4.588-9.344 4.588-7.442 0-12.31-5.204-12.31-15.499M263.544 122.952h5.26l6.38 17.682c.894 2.462 2.07 6.098 2.405 7.945h.224c.391-1.847 1.678-5.54 2.517-7.945l6.38-17.682h5.26l-11.415 29.991h-5.652l-11.359-29.99zM299.129 134.983h15.275c-.056-5.092-2.294-8.562-7.274-8.562-4.7 0-7.498 3.19-8.001 8.562m20.423.95v2.966h-20.535c.168 6.77 3.581 10.408 9.568 10.408 2.909 0 5.875-.56 8.226-1.455l1.398 3.693c-3.077 1.343-5.764 1.959-9.848 1.959-8.561 0-14.436-5.316-14.436-15.332 0-9.848 5.315-15.78 13.261-15.78 7.666 0 12.366 5.372 12.366 13.542M351.331 133.415v19.528h-4.868v-19.192c0-4.812-2.126-7.218-6.714-7.218-6.659 0-8.785 3.861-8.785 10.855v15.555h-4.924v-29.99h3.973l.727 4.084h.28c1.958-3.134 5.651-4.644 9.457-4.644 7.162 0 10.854 3.3 10.854 11.022M371.36 148.747l1.344 3.524c-1.064.672-3.19 1.232-5.485 1.232-4.7 0-8.784-2.015-8.784-9.288v-26.299l4.924-1.847v6.883h8.673v3.805h-8.673v17.345c0 3.637 1.958 5.373 4.7 5.373 1.119 0 2.63-.392 3.3-.728M377.121 152.943h4.924v-29.991h-4.924v29.991zm5.372-38.104c0 2.126-1.343 3.133-2.854 3.133-1.622 0-2.909-1.007-2.909-3.133 0-2.183 1.287-3.134 2.909-3.134 1.511 0 2.854.951 2.854 3.134zM397.99 153.503c-4.196 0-7.106-.672-9.4-1.902l1.455-3.805c1.958.839 5.204 1.734 8.057 1.734 4.98 0 7.106-1.734 7.106-4.421 0-2.237-1.51-3.581-7.386-5.818-5.819-2.238-9.288-4.029-9.288-8.953 0-5.092 4.532-7.945 11.247-7.945 3.637 0 6.771.783 9.567 2.014l-1.51 3.973c-2.574-1.119-5.484-1.959-8.393-1.959-4.029 0-6.21 1.399-6.21 3.638 0 2.517 1.957 3.524 7.721 5.707 5.707 2.126 9.01 4.085 9.01 8.896 0 5.82-4.646 8.841-11.976 8.841M427.812 148.747l1.343 3.524c-1.064.672-3.19 1.232-5.484 1.232-4.7 0-8.785-2.015-8.785-9.288v-26.299l4.924-1.847v6.883h8.674v3.805h-8.674v17.345c0 3.637 1.959 5.373 4.7 5.373 1.119 0 2.63-.392 3.302-.728M433.517 114.559c.504 0 .84-.28.84-.728 0-.447-.28-.67-.84-.67h-.503v1.398h.503zm-1.287-2.07h1.287c1.119 0 1.623.448 1.623 1.342 0 .617-.392.953-.783 1.12l1.175 1.959h-.896l-1.007-1.735h-.615v1.735h-.784v-4.421zm4.532 2.238c0-1.734-1.286-3.19-3.133-3.19-1.846 0-3.133 1.343-3.133 3.19 0 1.734 1.287 3.134 3.133 3.134 1.735 0 3.133-1.287 3.133-3.134zm-6.826 0c0-2.182 1.51-3.75 3.693-3.75 2.07 0 3.693 1.568 3.693 3.75 0 2.127-1.567 3.693-3.693 3.693-2.182 0-3.693-1.566-3.693-3.693zM458.023 132.968c0 9.904 4.588 16.115 13.765 16.115 3.468 0 7.72-.784 10.295-2.014l1.455 3.86c-4.477 2.07-7.443 2.574-12.478 2.574-12.254 0-18.353-8.001-18.353-20.591 0-12.086 6.827-20.48 19.192-20.48 4.085 0 7.666.673 10.687 2.183l-1.678 4.42c-2.462-1.12-5.484-2.181-9.065-2.181-8.561 0-13.82 6.098-13.82 16.114M493.215 122.897c0 1.454-.112 3.02-.28 4.196h.336c1.902-3.077 5.483-4.644 9.344-4.644 7.274 0 10.967 3.302 10.967 10.967v19.528h-4.868V133.75c0-4.811-2.126-7.217-6.715-7.217-6.714 0-8.784 3.917-8.784 10.91v15.5h-4.924v-40.68l4.924-1.846v12.479zM546.816 152.943h-4.028l-.728-3.973h-.223c-1.96 3.134-5.652 4.533-9.513 4.533-7.218 0-10.911-3.302-10.911-10.912v-19.639h4.98v19.303c0 4.813 2.126 7.163 6.658 7.163 6.659 0 8.84-3.86 8.84-10.855v-15.61h4.925v29.99zM572.719 122.729l-.615 4.532c-.951-.223-2.24-.391-3.245-.391-4.645 0-8.73 4.028-8.73 10.07v16.004h-4.923v-29.991h4.029l.559 5.483h.224c1.902-3.302 4.979-6.043 9.177-6.043 1.119 0 2.517.11 3.524.336M574.397 138.115c0-11.078 5.987-15.723 14.045-15.723 3.02 0 6.154.728 7.945 1.623l-1.567 4.084c-1.79-.67-4.42-1.398-6.49-1.398-5.988 0-8.841 3.86-8.841 11.358 0 7.218 2.91 11.191 8.56 11.191 2.519 0 4.7-.56 6.66-1.454l1.51 3.916c-1.678 1.063-4.7 1.791-8.113 1.791-8.002 0-13.71-4.756-13.71-15.388M606.736 122.897c0 1.454-.111 3.02-.28 4.196h.335c1.904-3.077 5.485-4.644 9.344-4.644 7.276 0 10.968 3.302 10.968 10.967v19.528h-4.868V133.75c0-4.811-2.126-7.217-6.714-7.217-6.715 0-8.785 3.917-8.785 10.91v15.5h-4.924v-40.68l4.924-1.846v12.479z"/>
        <g>
            <path d="M208.884 93.503c-4.477 0-8.45-.672-10.968-1.902l1.568-4.141c1.734.783 5.37 1.679 9.624 1.679 5.93 0 9.008-2.462 9.008-6.435 0-3.917-2.182-5.596-9.4-8.225-6.827-2.462-10.296-5.652-10.296-11.863 0-6.322 5.204-10.183 12.758-10.183 4.364 0 8 .895 11.022 2.238l-1.622 4.309c-2.798-1.175-6.043-2.126-9.512-2.126-4.98 0-7.554 2.349-7.554 5.818 0 4.029 2.238 5.651 8.728 8.058 7.05 2.629 10.912 5.259 10.912 11.526 0 7.106-5.54 11.247-14.268 11.247M233.501 74.983h15.275c-.056-5.093-2.294-8.563-7.274-8.563-4.7 0-7.498 3.19-8 8.563m20.422.95v2.965H233.39c.168 6.772 3.581 10.409 9.568 10.409 2.91 0 5.875-.56 8.226-1.456l1.398 3.694c-3.077 1.343-5.764 1.959-9.848 1.959-8.56 0-14.436-5.317-14.436-15.333 0-9.848 5.315-15.778 13.261-15.778 7.666 0 12.366 5.37 12.366 13.54M254.538 62.952h5.26l6.38 17.682c.893 2.462 2.07 6.098 2.404 7.945h.224c.392-1.847 1.678-5.54 2.518-7.945l6.38-17.682h5.26l-11.416 29.991h-5.652l-11.358-29.99zM290.122 74.983h15.275c-.055-5.093-2.294-8.563-7.273-8.563-4.7 0-7.498 3.19-8.002 8.563m20.424.95v2.965h-20.535c.168 6.772 3.581 10.409 9.567 10.409 2.91 0 5.876-.56 8.226-1.456l1.398 3.694c-3.077 1.343-5.763 1.959-9.848 1.959-8.56 0-14.435-5.317-14.435-15.333 0-9.848 5.315-15.778 13.261-15.778 7.666 0 12.366 5.37 12.366 13.54M342.325 73.415v19.528h-4.868V73.751c0-4.812-2.126-7.218-6.715-7.218-6.658 0-8.784 3.861-8.784 10.855v15.555h-4.924v-29.99h3.973l.726 4.084h.28c1.958-3.134 5.652-4.644 9.457-4.644 7.162 0 10.855 3.3 10.855 11.022M362.354 88.747l1.343 3.524c-1.064.672-3.19 1.232-5.484 1.232-4.7 0-8.785-2.015-8.785-9.288V57.916l4.924-1.847v6.883h8.674v3.805h-8.674v17.345c0 3.637 1.959 5.373 4.7 5.373 1.119 0 2.63-.392 3.302-.728M373.04 62.897c0 1.454-.113 3.02-.28 4.196h.335c1.902-3.077 5.483-4.644 9.344-4.644 7.274 0 10.967 3.302 10.967 10.967v19.528h-4.868V73.75c0-4.811-2.126-7.217-6.715-7.217-6.714 0-8.784 3.917-8.784 10.91v15.5h-4.924v-40.68l4.924-1.846v12.479zM398.215 75.766h13.541l1.679 4.364h-13.541zM439.06 78.955v-.896c0-7.44-2.015-11.582-8.673-11.582-5.315 0-7.945 4.533-7.945 11.638 0 7.162 2.63 11.303 8 11.303 6.324 0 8.618-3.469 8.618-10.463m-21.71-.95c0-10.297 4.924-15.612 12.365-15.612 4.645 0 7.443 1.958 9.288 4.42h.336c-.111-.952-.336-3.3-.336-4.42V52.32l4.925-1.902v42.525h-3.972l-.728-4.028h-.225c-1.79 2.573-4.643 4.588-9.343 4.588-7.443 0-12.31-5.204-12.31-15.499M465.69 78.451c-7.497.28-9.903 2.406-9.903 6.211 0 3.357 2.238 4.868 5.484 4.868 5.035 0 8.84-2.742 8.84-8.56v-2.687l-4.42.168zm9.289-5.93v20.422h-3.581l-.951-4.253h-.224c-2.63 3.302-5.036 4.813-10.071 4.813-5.428 0-9.457-2.798-9.457-8.897 0-5.987 4.589-9.289 14.38-9.568l5.093-.168v-1.79c0-4.98-2.294-6.659-6.211-6.659-3.134 0-5.988 1.12-8.45 2.294l-1.51-3.693c2.63-1.399 6.322-2.574 10.239-2.574 7.274 0 10.743 3.078 10.743 10.072zM483.704 62.952l6.491 17.065c1.12 3.022 2.071 5.708 2.518 8.17h.223c.45-1.846 1.511-5.148 2.575-8.225l6.098-17.01h5.317L494 97.084c-2.126 5.651-4.028 7.722-8 9.288l-1.512-3.973c2.294-1.062 3.245-2.126 4.476-5.37l1.567-3.973-12.086-30.104h5.26z"/>
        </g>
        <g>
            <path d="M92.989 144.298c0 .54.62.543.732 0 .824-3.998 2.076-6.662 4.033-9.25l-4.401.003a.365.365 0 0 0-.364.364v8.883zm32.32-55.485c-.181-.585-.687-.623-.682-.011.05 5.779-1.612 10.745-12.16 21.294l-8.344 8.336c-3.797 3.797-7.211 7.265-9.23 10.73h8.24l.975-.975 11.97-11.982c9.969-9.97 11.359-20.514 9.23-27.392zm-11.187 35.249l-10 10.007c-6.051 6.053-11.133 11.268-11.133 16.97l.006 1.589c0 .43.536.499.7.048 1.87-5.106 8.113-10.556 19.565-8.624 0 0 49.89 8.62 50.31 8.658.487.043.728-.437.414-.811-.19-.224-23.22-23.254-23.22-23.254l-26.642-4.583zm-36.093 10.987a.364.364 0 0 1-.364-.364v-5.162c0-.201.163-.364.364-.364l8.732.002a.364.364 0 0 0 .364-.363c-.023-4.638-3.518-7.79-17.523-5.351l-30.24 5.198s-23.032 23.03-23.221 23.254c-.314.374-.073.854.414.81.42-.036 50.31-8.657 50.31-8.657 11.453-1.932 17.696 3.518 19.564 8.624.165.45.702.383.702-.048v-17.215a.364.364 0 0 0-.363-.364h-8.74zm-13.94-72.152c-9.968 9.969-11.358 20.514-9.23 27.392.18.585.687.623.682.01-.05-5.778 1.613-10.745 12.16-21.293l22.74-22.733c6.053-6.053 11.135-11.268 11.135-16.971v-8.895c0-.541-.62-.543-.732 0-1.496 7.259-4.4 10.123-10.387 16.11L64.09 62.898zm37.509-17.973v-8.956c0-.541-.62-.543-.732 0-1.496 7.26-4.392 10.169-10.38 16.157L66.603 75.988c-11.59 11.59-13.596 22.808-7.701 30.016.393.48.816.192.56-.388-3.898-8.818 5.448-18.167 9.898-22.617l21.104-21.105c6.052-6.052 11.134-11.267 11.134-16.97zm-34.34 46.044c-11.591 11.592-6.261 22.787.5 25.868.593.27.829-.211.375-.604-5.421-4.696-3.775-12.597 3.043-19.414L90.44 77.553c6.052-6.052 11.133-11.267 11.133-16.97v-8.895c0-.541-.62-.543-.731 0-1.496 7.259-4.394 10.11-10.381 16.099l-23.203 23.18zm25.71 28.813v8.955c0 .54.62.543.73 0 1.498-7.26 4.394-10.168 10.38-16.156l9.488-9.466c11.59-11.59 13.595-22.808 7.7-30.016-.393-.48-.816-.193-.56.387 3.898 8.818-5.447 18.168-9.897 22.618l-6.707 6.707c-6.053 6.053-11.134 11.268-11.134 16.97zm11.137-22.863c-5.988 5.988-8.886 8.84-10.381 16.099-.112.543-.732.54-.732 0v-8.895c0-5.703 5.08-10.918 11.134-16.97l4.867-4.868c6.818-6.818 8.464-14.718 3.042-19.415-.453-.392-.217-.874.376-.603 6.76 3.08 12.09 14.276.499 25.867l-8.805 8.785zM160.307 135.712c.525 0 .839-.293.839-.718 0-.474-.263-.677-.85-.677h-.494v1.395h.505zm-1.272-2.041h1.293c1.1 0 1.595.435 1.595 1.304 0 .635-.384.989-.788 1.151l1.172 1.96h-.868l-1.011-1.748h-.626v1.748h-.767v-4.415zm4.515 2.202c0-1.747-1.304-3.172-3.132-3.172s-3.141 1.324-3.141 3.172c0 1.748 1.313 3.172 3.14 3.172 1.729 0 3.133-1.323 3.133-3.172zm-6.84 0c0-2.151 1.557-3.707 3.708-3.707 2.05 0 3.707 1.556 3.707 3.707 0 2.152-1.555 3.707-3.707 3.707-2.151 0-3.707-1.555-3.707-3.707z"/>
        </g>
    </g>
</svg>
